<svg xmlns="http://www.w3.org/2000/svg" width="76.168" height="37.288" viewBox="0 0 76.168 37.288">
  <path id="_1" data-name="1" d="M-13.416-35.376q-10.272,0-16.92,5.016a15.732,15.732,0,0,0-6.648,13.176A15.642,15.642,0,0,0-30.336-4.1Q-23.688.912-13.416.912q10.224,0,16.9-4.992a15.606,15.606,0,0,0,6.672-13.1,15.732,15.732,0,0,0-6.624-13.2Q-3.1-35.376-13.416-35.376ZM-15.432-.384a4.027,4.027,0,0,1-.5-1.392A19.172,19.172,0,0,1-16.1-4.9v-24.96a16.564,16.564,0,0,1,.192-3.264,2.5,2.5,0,0,1,.624-1.152,1.935,1.935,0,0,1,.768-.528,2.956,2.956,0,0,1,1.1-.192,2.956,2.956,0,0,1,1.1.192,1.935,1.935,0,0,1,.768.528,2.869,2.869,0,0,1,.624,1.248,16.26,16.26,0,0,1,.192,3.168V-4.9a21.82,21.82,0,0,1-.144,3.072,3.289,3.289,0,0,1-.48,1.344,1.937,1.937,0,0,1-.816.744,2.76,2.76,0,0,1-1.248.264A3.066,3.066,0,0,1-14.664.312,1.7,1.7,0,0,1-15.432-.384Zm53.616.192a6.221,6.221,0,0,1-2.208-.552A3.838,3.838,0,0,1,34.488-1.92a4.21,4.21,0,0,1-.72-1.728,22.457,22.457,0,0,1-.192-3.6V-34.992H21.1a4.334,4.334,0,0,1-2.664,1.968,28.95,28.95,0,0,1-7.464.624v.288a6.261,6.261,0,0,1,3.96,1.824,6.36,6.36,0,0,1,1.08,4.368V-7.248a18.243,18.243,0,0,1-.288,3.816,3.785,3.785,0,0,1-.912,1.848,5.066,5.066,0,0,1-1.56.984A5.633,5.633,0,0,1,11.4-.192V0H38.184Z" transform="translate(37.484 35.876)" fill="none" stroke="#fff" stroke-width="1"/>
</svg>
