<svg xmlns="http://www.w3.org/2000/svg" width="55.048" height="35.992" viewBox="0 0 55.048 35.992">
  <path id="_11" data-name="11" d="M.192-.192A6.221,6.221,0,0,1-2.016-.744,3.838,3.838,0,0,1-3.5-1.92a4.21,4.21,0,0,1-.72-1.728,22.457,22.457,0,0,1-.192-3.6V-34.992H-16.9a4.334,4.334,0,0,1-2.664,1.968,28.95,28.95,0,0,1-7.464.624v.288a6.261,6.261,0,0,1,3.96,1.824,6.36,6.36,0,0,1,1.08,4.368V-7.248a18.243,18.243,0,0,1-.288,3.816,3.785,3.785,0,0,1-.912,1.848,5.066,5.066,0,0,1-1.56.984,5.633,5.633,0,0,1-1.848.408V0H.192Zm26.832,0a6.221,6.221,0,0,1-2.208-.552A3.838,3.838,0,0,1,23.328-1.92a4.21,4.21,0,0,1-.72-1.728,22.457,22.457,0,0,1-.192-3.6V-34.992H9.936a4.334,4.334,0,0,1-2.664,1.968A28.95,28.95,0,0,1-.192-32.4v.288a6.261,6.261,0,0,1,3.96,1.824,6.36,6.36,0,0,1,1.08,4.368V-7.248A18.243,18.243,0,0,1,4.56-3.432a3.785,3.785,0,0,1-.912,1.848A5.066,5.066,0,0,1,2.088-.6,5.633,5.633,0,0,1,.24-.192V0H27.024Z" transform="translate(27.524 35.492)" fill="none" stroke="#fff" stroke-width="1"/>
</svg>
