<svg xmlns="http://www.w3.org/2000/svg" width="66.568" height="37.288" viewBox="0 0 66.568 37.288">
  <path id="_12" data-name="12" d="M-6.072-.192A6.221,6.221,0,0,1-8.28-.744,3.838,3.838,0,0,1-9.768-1.92a4.21,4.21,0,0,1-.72-1.728,22.457,22.457,0,0,1-.192-3.6V-34.992H-23.16a4.334,4.334,0,0,1-2.664,1.968,28.95,28.95,0,0,1-7.464.624v.288a6.261,6.261,0,0,1,3.96,1.824,6.36,6.36,0,0,1,1.08,4.368V-7.248a18.243,18.243,0,0,1-.288,3.816,3.785,3.785,0,0,1-.912,1.848,5.066,5.066,0,0,1-1.56.984,5.633,5.633,0,0,1-1.848.408V0H-6.072ZM32.28-13.968q0-.96-.1-2.064a15.037,15.037,0,0,0-.24-1.776h-.192a18.709,18.709,0,0,1-.168,3.576,3.453,3.453,0,0,1-.792,1.7,3.589,3.589,0,0,1-1.488.864,7.98,7.98,0,0,1-2.352.288,18.488,18.488,0,0,1-2.208-.168q-1.344-.168-4.656-.744-4.848-.816-7.368-1.08a43.948,43.948,0,0,0-4.536-.264,23.467,23.467,0,0,0-4.872.456A15.716,15.716,0,0,0-.936-11.568q-.1.048-.144,0t.048-.144A9.137,9.137,0,0,1,1.056-13.1a15.342,15.342,0,0,1,2.808-1.008q.816-.192,1.752-.36t2.136-.264q1.44-.144,5.04-.408t5.52-.456A34.77,34.77,0,0,0,24.5-16.776,11.633,11.633,0,0,0,28.3-18.624a7.674,7.674,0,0,0,2.256-2.736,7.708,7.708,0,0,0,.768-3.408,8.632,8.632,0,0,0-4.536-7.968q-4.536-2.64-14.232-2.64-3.072,0-5.472.24a30.348,30.348,0,0,0-4.32.72,11.673,11.673,0,0,0-6,3.288,7.83,7.83,0,0,0-2.208,5.5,7.777,7.777,0,0,0,2.016,5.64A7.314,7.314,0,0,0,2.088-17.9,7.983,7.983,0,0,0,7.92-20.088a7.427,7.427,0,0,0,2.232-5.544,7.1,7.1,0,0,0-2.16-5.376,7.728,7.728,0,0,0-5.568-2.064A7.647,7.647,0,0,0,1.344-33a10.73,10.73,0,0,0-1.08.216q-.144.048-.192-.072t.144-.216a13.312,13.312,0,0,1,2.952-.984,14.816,14.816,0,0,1,3.144-.36,5.007,5.007,0,0,1,4.368,1.872q1.344,1.872,1.344,6.96a17.081,17.081,0,0,1-.576,4.9,7.4,7.4,0,0,1-1.824,3.12,8.587,8.587,0,0,1-2.256,1.584,22.9,22.9,0,0,1-3.6,1.344,13.6,13.6,0,0,0-6.552,4.032A9.9,9.9,0,0,0-4.968-4.08,18.13,18.13,0,0,0-4.752-1.3,6.7,6.7,0,0,0-4.2.72h.144A4.178,4.178,0,0,1-3.48-2.832,3.573,3.573,0,0,1-.408-4.272a9.014,9.014,0,0,1,2.256.36q1.344.36,4.656,1.56A69.845,69.845,0,0,0,14.832.264,25.541,25.541,0,0,0,20.28.912a10.634,10.634,0,0,0,8.856-3.984Q32.28-7.056,32.28-13.968Z" transform="translate(33.788 35.876)" fill="none" stroke="#fff" stroke-width="1"/>
</svg>
