<svg xmlns="http://www.w3.org/2000/svg" width="67.432" height="37.288" viewBox="0 0 67.432 37.288">
  <path id="_13" data-name="13" d="M-6.432-.192A6.221,6.221,0,0,1-8.64-.744,3.838,3.838,0,0,1-10.128-1.92a4.21,4.21,0,0,1-.72-1.728,22.457,22.457,0,0,1-.192-3.6V-34.992H-23.52a4.334,4.334,0,0,1-2.664,1.968,28.95,28.95,0,0,1-7.464.624v.288a6.261,6.261,0,0,1,3.96,1.824,6.36,6.36,0,0,1,1.08,4.368V-7.248A18.243,18.243,0,0,1-28.9-3.432a3.785,3.785,0,0,1-.912,1.848,5.066,5.066,0,0,1-1.56.984,5.633,5.633,0,0,1-1.848.408V0H-6.432Zm39.216-8.88q0-4.32-4.248-6.5T15.792-17.76v-.1a26,26,0,0,0,11.256-2.208q4.632-2.208,4.632-6.1,0-4.512-4.608-6.864t-13.44-2.352a55.6,55.6,0,0,0-6.744.336,29.285,29.285,0,0,0-5.112,1.1,11.461,11.461,0,0,0-5.208,3.048,6.861,6.861,0,0,0-1.656,4.68A6.6,6.6,0,0,0-3.072-21.24,7.551,7.551,0,0,0,2.4-19.3a7.055,7.055,0,0,0,5.184-1.9A6.551,6.551,0,0,0,9.5-26.064a6.148,6.148,0,0,0-2.04-4.776,7.735,7.735,0,0,0-5.4-1.848,7.825,7.825,0,0,0-1.536.144,5.14,5.14,0,0,0-1.3.432.175.175,0,0,1-.216-.048q-.072-.1.072-.144a13,13,0,0,1,3.936-1.56,19.572,19.572,0,0,1,4.656-.6A5.122,5.122,0,0,1,11.9-32.808q1.344,1.656,1.344,5.448v4.752A7.348,7.348,0,0,1,12.6-19.08a2.184,2.184,0,0,1-2.04,1.128q-.192,0-.456-.024t-.984-.072q-.912-.1-1.344-.12t-.768-.024a4.678,4.678,0,0,0-1.2.1q-.288.1-.288.336a.389.389,0,0,0,.288.36,3.777,3.777,0,0,0,1.2.12q.336,0,.768-.024t1.344-.12q.72-.048.984-.072t.456-.024a2.2,2.2,0,0,1,2.088,1.2,9.532,9.532,0,0,1,.648,4.176v5.232a8.476,8.476,0,0,1-1.44,5.3A4.976,4.976,0,0,1,7.68.24,25.388,25.388,0,0,1,2.112-.384,10.183,10.183,0,0,1-1.824-1.92a.133.133,0,0,1-.024-.192q.072-.1.264,0a7.1,7.1,0,0,0,1.92.624,11.749,11.749,0,0,0,2.3.24A7.334,7.334,0,0,0,7.992-3.24a6.66,6.66,0,0,0,2.04-4.968,7.1,7.1,0,0,0-2.16-5.376A7.728,7.728,0,0,0,2.3-15.648a8.164,8.164,0,0,0-5.688,2.16A6.815,6.815,0,0,0-5.76-8.256,7.62,7.62,0,0,0-4.248-3.432a9.544,9.544,0,0,0,4.584,3A23.668,23.668,0,0,0,5.136.576a62.077,62.077,0,0,0,7.1.336q9.6,0,15.072-2.592T32.784-9.072Z" transform="translate(34.148 35.876)" fill="none" stroke="#fff" stroke-width="1"/>
</svg>
