<svg xmlns="http://www.w3.org/2000/svg" width="72.904" height="35.992" viewBox="0 0 72.904 35.992">
  <path id="_14" data-name="14" d="M-8.592-.192A6.221,6.221,0,0,1-10.8-.744,3.838,3.838,0,0,1-12.288-1.92a4.21,4.21,0,0,1-.72-1.728,22.457,22.457,0,0,1-.192-3.6V-34.992H-25.68a4.334,4.334,0,0,1-2.664,1.968,28.95,28.95,0,0,1-7.464.624v.288a6.261,6.261,0,0,1,3.96,1.824,6.36,6.36,0,0,1,1.08,4.368V-7.248a18.243,18.243,0,0,1-.288,3.816,3.785,3.785,0,0,1-.912,1.848,5.066,5.066,0,0,1-1.56.984,5.633,5.633,0,0,1-1.848.408V0H-8.592Zm42.432,0a7.417,7.417,0,0,1-2.136-.6,3.84,3.84,0,0,1-1.368-1.08,4.754,4.754,0,0,1-.816-1.8A17.73,17.73,0,0,1,29.28-7.2v-4.464H36.1V-12.1H29.28v-22.9h-.336a32.537,32.537,0,0,1-7.152,10.008,29.279,29.279,0,0,1-10.08,6.36V-12.1H-6.624v-.144A32.132,32.132,0,0,0,4.152-14.616a28.394,28.394,0,0,0,8.808-5.928,40.468,40.468,0,0,0,6.12-7.272,22.7,22.7,0,0,0,3.1-7.176H3.936a28.027,28.027,0,0,1-4.1,13.464,26.087,26.087,0,0,1-9.816,9.672v.192h21.7V-7.2a18.58,18.58,0,0,1-.24,3.552,4.039,4.039,0,0,1-.864,1.824A4.21,4.21,0,0,1,9.168-.768,6.749,6.749,0,0,1,7.1-.192V0H33.84Z" transform="translate(36.308 35.492)" fill="none" stroke="#fff" stroke-width="1"/>
</svg>
