<svg xmlns="http://www.w3.org/2000/svg" width="63.976" height="37.816" viewBox="0 0 63.976 37.816">
  <path id="_15" data-name="15" d="M-4.608-.192A6.221,6.221,0,0,1-6.816-.744,3.838,3.838,0,0,1-8.3-1.92a4.21,4.21,0,0,1-.72-1.728,22.457,22.457,0,0,1-.192-3.6V-34.992H-21.7a4.334,4.334,0,0,1-2.664,1.968,28.95,28.95,0,0,1-7.464.624v.288a6.261,6.261,0,0,1,3.96,1.824,6.36,6.36,0,0,1,1.08,4.368V-7.248a18.243,18.243,0,0,1-.288,3.816,3.785,3.785,0,0,1-.912,1.848,5.066,5.066,0,0,1-1.56.984,5.633,5.633,0,0,1-1.848.408V0H-4.608Zm16.752-20.64a31.278,31.278,0,0,0-8.424.912,9.569,9.569,0,0,0-4.776,2.832l.48-6.816q.336,0,.888.048t1.992.24q4.128.384,6.648.552t4.68.168q8.736-.048,11.952-1.92A6.38,6.38,0,0,0,28.8-30.768a14.569,14.569,0,0,0-.264-2.664,10.736,10.736,0,0,0-.744-2.472H27.5q-.192,1.392-3.024,1.968a60.093,60.093,0,0,1-10.224.576,66.33,66.33,0,0,1-7.632-.456,63.409,63.409,0,0,1-7.2-1.224h-.1q0,1.2-.048,3.168t-.24,6.048q0,.672-.144,2.952T-1.488-16.7a.9.9,0,0,1-.072.36q-.072.168-.216.456a1.813,1.813,0,0,0-.24.456,1.14,1.14,0,0,0-.048.312.413.413,0,0,0,.1.264.26.26,0,0,0,.192.12.509.509,0,0,0,.336-.12.652.652,0,0,0,.192-.408,3.044,3.044,0,0,0,.1-.456,1.671,1.671,0,0,1,.1-.408,5.618,5.618,0,0,1,2.784-2.544,9.559,9.559,0,0,1,4.32-1.056,6.973,6.973,0,0,1,5.064,1.7,6.621,6.621,0,0,1,1.752,4.968v4.08q0,5.472-1.44,7.344T6.336.24A15.007,15.007,0,0,1,3.216-.1a6.861,6.861,0,0,1-2.16-.72.157.157,0,0,1-.048-.192q.048-.1.192-.048a3.776,3.776,0,0,0,1.128.264q.7.072,1.752.072A6.622,6.622,0,0,0,9.048-2.784a6.811,6.811,0,0,0,1.992-4.9,6.991,6.991,0,0,0-2.16-5.16,7.282,7.282,0,0,0-5.328-2.136,7.561,7.561,0,0,0-5.52,2.064A7.005,7.005,0,0,0-4.08-7.68,8.085,8.085,0,0,0-3.048-3.672,6.9,6.9,0,0,0-.192-.864,13.148,13.148,0,0,0,4.056.48a47.621,47.621,0,0,0,7.32.432Q21.168.912,26.16-1.8a8.666,8.666,0,0,0,4.992-8.04,8.933,8.933,0,0,0-4.776-8.232Q21.6-20.832,12.144-20.832Z" transform="translate(32.324 36.404)" fill="none" stroke="#fff" stroke-width="1"/>
</svg>
