<svg xmlns="http://www.w3.org/2000/svg" width="71.08" height="37.288" viewBox="0 0 71.08 37.288">
  <path id="_16" data-name="16" d="M-8.3-.192a6.221,6.221,0,0,1-2.208-.552A3.838,3.838,0,0,1-12-1.92a4.21,4.21,0,0,1-.72-1.728,22.457,22.457,0,0,1-.192-3.6V-34.992h-12.48a4.334,4.334,0,0,1-2.664,1.968,28.95,28.95,0,0,1-7.464.624v.288a6.261,6.261,0,0,1,3.96,1.824,6.36,6.36,0,0,1,1.08,4.368V-7.248a18.243,18.243,0,0,1-.288,3.816,3.785,3.785,0,0,1-.912,1.848A5.066,5.066,0,0,1-33.24-.6a5.633,5.633,0,0,1-1.848.408V0H-8.3Zm27.36-19.872a16.328,16.328,0,0,0-5.136.6,3.836,3.836,0,0,0-2.352,2.184v-9.7q0-4.512,1.7-6.12t6.36-1.608a24.362,24.362,0,0,1,4.008.408,13.447,13.447,0,0,1,3.144.792q.144.048.1.168t-.192.072a5.1,5.1,0,0,0-.96-.168,11.388,11.388,0,0,0-1.2-.072,7.207,7.207,0,0,0-5.016,1.752,6.048,6.048,0,0,0-1.944,4.728,5.794,5.794,0,0,0,2.064,4.608A8.1,8.1,0,0,0,25.1-20.64a9.01,9.01,0,0,0,5.88-1.752,5.745,5.745,0,0,0,2.136-4.68q0-4.032-4.32-6.168t-12-2.136q-11.28,0-17.784,4.92a15.919,15.919,0,0,0-6.5,13.416q0,8.5,5.688,13.224T13.968.912q9.984,0,15.288-2.832t5.3-8.3a8.147,8.147,0,0,0-4.2-7.176Q26.16-20.064,19.056-20.064Zm-7.44,6.144v-1.272a4.312,4.312,0,0,1,.048-.7,3.815,3.815,0,0,1,.744-2.016,1.868,1.868,0,0,1,1.512-.864,1.888,1.888,0,0,1,1.8,1.032,8.844,8.844,0,0,1,.552,3.768v9.984a7.643,7.643,0,0,1-.552,3.6A1.926,1.926,0,0,1,13.968.48a1.974,1.974,0,0,1-1.8-.864,7.643,7.643,0,0,1-.552-3.6Z" transform="translate(36.02 35.876)" fill="none" stroke="#fff" stroke-width="1"/>
</svg>
