<svg xmlns="http://www.w3.org/2000/svg" width="87.688" height="37.288" viewBox="0 0 87.688 37.288">
  <path id="_2" data-name="2" d="M-19.68-35.376q-10.272,0-16.92,5.016a15.732,15.732,0,0,0-6.648,13.176A15.642,15.642,0,0,0-36.6-4.1Q-29.952.912-19.68.912q10.224,0,16.9-4.992a15.606,15.606,0,0,0,6.672-13.1,15.732,15.732,0,0,0-6.624-13.2Q-9.36-35.376-19.68-35.376ZM-21.7-.384a4.027,4.027,0,0,1-.5-1.392,19.172,19.172,0,0,1-.168-3.12v-24.96a16.564,16.564,0,0,1,.192-3.264,2.5,2.5,0,0,1,.624-1.152,1.935,1.935,0,0,1,.768-.528,2.956,2.956,0,0,1,1.1-.192,2.956,2.956,0,0,1,1.1.192,1.935,1.935,0,0,1,.768.528,2.869,2.869,0,0,1,.624,1.248,16.26,16.26,0,0,1,.192,3.168V-4.9a21.82,21.82,0,0,1-.144,3.072,3.289,3.289,0,0,1-.48,1.344,1.937,1.937,0,0,1-.816.744A2.76,2.76,0,0,1-19.68.528,3.066,3.066,0,0,1-20.928.312,1.7,1.7,0,0,1-21.7-.384ZM43.44-13.968q0-.96-.1-2.064a15.037,15.037,0,0,0-.24-1.776h-.192a18.709,18.709,0,0,1-.168,3.576,3.453,3.453,0,0,1-.792,1.7,3.589,3.589,0,0,1-1.488.864,7.98,7.98,0,0,1-2.352.288,18.488,18.488,0,0,1-2.208-.168q-1.344-.168-4.656-.744Q26.4-13.1,23.88-13.368a43.948,43.948,0,0,0-4.536-.264,23.467,23.467,0,0,0-4.872.456,15.716,15.716,0,0,0-4.248,1.608q-.1.048-.144,0t.048-.144A9.137,9.137,0,0,1,12.216-13.1a15.342,15.342,0,0,1,2.808-1.008q.816-.192,1.752-.36t2.136-.264q1.44-.144,5.04-.408t5.52-.456a34.77,34.77,0,0,0,6.192-1.176,11.633,11.633,0,0,0,3.792-1.848,7.674,7.674,0,0,0,2.256-2.736,7.708,7.708,0,0,0,.768-3.408,8.632,8.632,0,0,0-4.536-7.968q-4.536-2.64-14.232-2.64-3.072,0-5.472.24a30.348,30.348,0,0,0-4.32.72,11.673,11.673,0,0,0-6,3.288,7.83,7.83,0,0,0-2.208,5.5,7.777,7.777,0,0,0,2.016,5.64,7.314,7.314,0,0,0,5.52,2.088,7.983,7.983,0,0,0,5.832-2.184,7.427,7.427,0,0,0,2.232-5.544,7.1,7.1,0,0,0-2.16-5.376,7.728,7.728,0,0,0-5.568-2.064A7.647,7.647,0,0,0,12.5-33a10.73,10.73,0,0,0-1.08.216q-.144.048-.192-.072t.144-.216a13.312,13.312,0,0,1,2.952-.984,14.816,14.816,0,0,1,3.144-.36,5.007,5.007,0,0,1,4.368,1.872q1.344,1.872,1.344,6.96a17.081,17.081,0,0,1-.576,4.9,7.4,7.4,0,0,1-1.824,3.12,8.587,8.587,0,0,1-2.256,1.584,22.9,22.9,0,0,1-3.6,1.344,13.6,13.6,0,0,0-6.552,4.032A9.9,9.9,0,0,0,6.192-4.08,18.13,18.13,0,0,0,6.408-1.3,6.7,6.7,0,0,0,6.96.72H7.1A4.178,4.178,0,0,1,7.68-2.832a3.573,3.573,0,0,1,3.072-1.44,9.014,9.014,0,0,1,2.256.36q1.344.36,4.656,1.56A69.845,69.845,0,0,0,25.992.264,25.541,25.541,0,0,0,31.44.912,10.634,10.634,0,0,0,40.3-3.072Q43.44-7.056,43.44-13.968Z" transform="translate(43.748 35.876)" fill="none" stroke="#fff" stroke-width="1"/>
</svg>
