<svg xmlns="http://www.w3.org/2000/svg" width="88.552" height="37.288" viewBox="0 0 88.552 37.288">
  <path id="_3" data-name="3" d="M-20.04-35.376q-10.272,0-16.92,5.016a15.732,15.732,0,0,0-6.648,13.176A15.642,15.642,0,0,0-36.96-4.1Q-30.312.912-20.04.912q10.224,0,16.9-4.992a15.606,15.606,0,0,0,6.672-13.1A15.732,15.732,0,0,0-3.1-30.384Q-9.72-35.376-20.04-35.376ZM-22.056-.384a4.027,4.027,0,0,1-.5-1.392,19.172,19.172,0,0,1-.168-3.12v-24.96a16.564,16.564,0,0,1,.192-3.264,2.5,2.5,0,0,1,.624-1.152,1.935,1.935,0,0,1,.768-.528,2.956,2.956,0,0,1,1.1-.192,2.956,2.956,0,0,1,1.1.192,1.935,1.935,0,0,1,.768.528,2.869,2.869,0,0,1,.624,1.248,16.26,16.26,0,0,1,.192,3.168V-4.9A21.82,21.82,0,0,1-17.5-1.824a3.289,3.289,0,0,1-.48,1.344,1.937,1.937,0,0,1-.816.744A2.76,2.76,0,0,1-20.04.528,3.066,3.066,0,0,1-21.288.312,1.7,1.7,0,0,1-22.056-.384Zm66-8.688q0-4.32-4.248-6.5T26.952-17.76v-.1a26,26,0,0,0,11.256-2.208q4.632-2.208,4.632-6.1,0-4.512-4.608-6.864t-13.44-2.352a55.6,55.6,0,0,0-6.744.336,29.285,29.285,0,0,0-5.112,1.1,11.461,11.461,0,0,0-5.208,3.048,6.861,6.861,0,0,0-1.656,4.68A6.6,6.6,0,0,0,8.088-21.24,7.551,7.551,0,0,0,13.56-19.3a7.055,7.055,0,0,0,5.184-1.9,6.551,6.551,0,0,0,1.92-4.872,6.148,6.148,0,0,0-2.04-4.776,7.735,7.735,0,0,0-5.4-1.848,7.825,7.825,0,0,0-1.536.144,5.14,5.14,0,0,0-1.3.432.175.175,0,0,1-.216-.048q-.072-.1.072-.144a13,13,0,0,1,3.936-1.56,19.572,19.572,0,0,1,4.656-.6,5.122,5.122,0,0,1,4.224,1.656q1.344,1.656,1.344,5.448v4.752a7.348,7.348,0,0,1-.648,3.528,2.184,2.184,0,0,1-2.04,1.128q-.192,0-.456-.024t-.984-.072q-.912-.1-1.344-.12t-.768-.024a4.678,4.678,0,0,0-1.2.1q-.288.1-.288.336a.389.389,0,0,0,.288.36,3.777,3.777,0,0,0,1.2.12q.336,0,.768-.024t1.344-.12q.72-.048.984-.072t.456-.024a2.2,2.2,0,0,1,2.088,1.2,9.532,9.532,0,0,1,.648,4.176v5.232a8.476,8.476,0,0,1-1.44,5.3A4.976,4.976,0,0,1,18.84.24a25.388,25.388,0,0,1-5.568-.624A10.183,10.183,0,0,1,9.336-1.92a.133.133,0,0,1-.024-.192q.072-.1.264,0a7.1,7.1,0,0,0,1.92.624,11.749,11.749,0,0,0,2.3.24A7.334,7.334,0,0,0,19.152-3.24a6.66,6.66,0,0,0,2.04-4.968,7.1,7.1,0,0,0-2.16-5.376,7.728,7.728,0,0,0-5.568-2.064,8.164,8.164,0,0,0-5.688,2.16A6.815,6.815,0,0,0,5.4-8.256,7.62,7.62,0,0,0,6.912-3.432a9.544,9.544,0,0,0,4.584,3A23.668,23.668,0,0,0,16.3.576a62.077,62.077,0,0,0,7.1.336q9.6,0,15.072-2.592T43.944-9.072Z" transform="translate(44.108 35.876)" fill="none" stroke="#fff" stroke-width="1"/>
</svg>
