<svg xmlns="http://www.w3.org/2000/svg" width="94.984" height="37.288" viewBox="0 0 94.984 37.288">
  <path id="_4" data-name="4" d="M-22.68-35.376q-10.272,0-16.92,5.016a15.732,15.732,0,0,0-6.648,13.176A15.642,15.642,0,0,0-39.6-4.1Q-32.952.912-22.68.912q10.224,0,16.9-4.992a15.606,15.606,0,0,0,6.672-13.1,15.732,15.732,0,0,0-6.624-13.2Q-12.36-35.376-22.68-35.376ZM-24.7-.384a4.027,4.027,0,0,1-.5-1.392,19.172,19.172,0,0,1-.168-3.12v-24.96a16.564,16.564,0,0,1,.192-3.264,2.5,2.5,0,0,1,.624-1.152,1.935,1.935,0,0,1,.768-.528,2.956,2.956,0,0,1,1.1-.192,2.956,2.956,0,0,1,1.1.192,1.935,1.935,0,0,1,.768.528,2.869,2.869,0,0,1,.624,1.248,16.26,16.26,0,0,1,.192,3.168V-4.9a21.82,21.82,0,0,1-.144,3.072,3.289,3.289,0,0,1-.48,1.344,1.937,1.937,0,0,1-.816.744A2.76,2.76,0,0,1-22.68.528,3.066,3.066,0,0,1-23.928.312,1.7,1.7,0,0,1-24.7-.384ZM45.48-.192a7.417,7.417,0,0,1-2.136-.6,3.84,3.84,0,0,1-1.368-1.08,4.754,4.754,0,0,1-.816-1.8A17.73,17.73,0,0,1,40.92-7.2v-4.464h6.816V-12.1H40.92v-22.9h-.336a32.537,32.537,0,0,1-7.152,10.008,29.279,29.279,0,0,1-10.08,6.36V-12.1H5.016v-.144a32.132,32.132,0,0,0,10.776-2.376A28.394,28.394,0,0,0,24.6-20.544a40.468,40.468,0,0,0,6.12-7.272,22.7,22.7,0,0,0,3.1-7.176H15.576a28.027,28.027,0,0,1-4.1,13.464,26.087,26.087,0,0,1-9.816,9.672v.192h21.7V-7.2a18.58,18.58,0,0,1-.24,3.552,4.039,4.039,0,0,1-.864,1.824,4.21,4.21,0,0,1-1.44,1.056,6.749,6.749,0,0,1-2.064.576V0H45.48Z" transform="translate(46.748 35.876)" fill="none" stroke="#fff" stroke-width="1"/>
</svg>
