<svg xmlns="http://www.w3.org/2000/svg" width="85.096" height="37.816" viewBox="0 0 85.096 37.816">
  <path id="_5" data-name="5" d="M-18.216-35.376q-10.272,0-16.92,5.016a15.732,15.732,0,0,0-6.648,13.176A15.642,15.642,0,0,0-35.136-4.1Q-28.488.912-18.216.912q10.224,0,16.9-4.992a15.606,15.606,0,0,0,6.672-13.1,15.732,15.732,0,0,0-6.624-13.2Q-7.9-35.376-18.216-35.376ZM-20.232-.384a4.027,4.027,0,0,1-.5-1.392A19.172,19.172,0,0,1-20.9-4.9v-24.96a16.564,16.564,0,0,1,.192-3.264,2.5,2.5,0,0,1,.624-1.152,1.935,1.935,0,0,1,.768-.528,2.956,2.956,0,0,1,1.1-.192,2.956,2.956,0,0,1,1.1.192,1.935,1.935,0,0,1,.768.528,2.869,2.869,0,0,1,.624,1.248,16.26,16.26,0,0,1,.192,3.168V-4.9a21.82,21.82,0,0,1-.144,3.072,3.289,3.289,0,0,1-.48,1.344,1.937,1.937,0,0,1-.816.744,2.76,2.76,0,0,1-1.248.264A3.066,3.066,0,0,1-19.464.312,1.7,1.7,0,0,1-20.232-.384ZM23.3-20.832a31.278,31.278,0,0,0-8.424.912A9.569,9.569,0,0,0,10.1-17.088l.48-6.816q.336,0,.888.048t1.992.24q4.128.384,6.648.552t4.68.168q8.736-.048,11.952-1.92a6.38,6.38,0,0,0,3.216-5.952,14.57,14.57,0,0,0-.264-2.664,10.736,10.736,0,0,0-.744-2.472h-.288q-.192,1.392-3.024,1.968a60.093,60.093,0,0,1-10.224.576,66.33,66.33,0,0,1-7.632-.456,63.409,63.409,0,0,1-7.2-1.224h-.1q0,1.2-.048,3.168t-.24,6.048q0,.672-.144,2.952T9.672-16.7a.9.9,0,0,1-.072.36q-.072.168-.216.456a1.813,1.813,0,0,0-.24.456,1.14,1.14,0,0,0-.048.312.413.413,0,0,0,.1.264.26.26,0,0,0,.192.12.509.509,0,0,0,.336-.12.652.652,0,0,0,.192-.408,3.044,3.044,0,0,0,.1-.456,1.671,1.671,0,0,1,.1-.408,5.618,5.618,0,0,1,2.784-2.544,9.559,9.559,0,0,1,4.32-1.056,6.973,6.973,0,0,1,5.064,1.7,6.621,6.621,0,0,1,1.752,4.968v4.08q0,5.472-1.44,7.344T17.5.24A15.007,15.007,0,0,1,14.376-.1a6.861,6.861,0,0,1-2.16-.72.157.157,0,0,1-.048-.192q.048-.1.192-.048a3.776,3.776,0,0,0,1.128.264q.7.072,1.752.072a6.622,6.622,0,0,0,4.968-2.064A6.811,6.811,0,0,0,22.2-7.68a6.991,6.991,0,0,0-2.16-5.16,7.282,7.282,0,0,0-5.328-2.136,7.561,7.561,0,0,0-5.52,2.064A7.005,7.005,0,0,0,7.08-7.68,8.085,8.085,0,0,0,8.112-3.672,6.9,6.9,0,0,0,10.968-.864,13.148,13.148,0,0,0,15.216.48a47.621,47.621,0,0,0,7.32.432Q32.328.912,37.32-1.8a8.666,8.666,0,0,0,4.992-8.04,8.933,8.933,0,0,0-4.776-8.232Q32.76-20.832,23.3-20.832Z" transform="translate(42.284 36.404)" fill="none" stroke="#fff" stroke-width="1"/>
</svg>
