<svg xmlns="http://www.w3.org/2000/svg" width="92.2" height="37.288" viewBox="0 0 92.2 37.288">
  <path id="_6" data-name="6" d="M-21.912-35.376q-10.272,0-16.92,5.016A15.732,15.732,0,0,0-45.48-17.184,15.642,15.642,0,0,0-38.832-4.1Q-32.184.912-21.912.912q10.224,0,16.9-4.992a15.606,15.606,0,0,0,6.672-13.1,15.732,15.732,0,0,0-6.624-13.2Q-11.592-35.376-21.912-35.376ZM-23.928-.384a4.027,4.027,0,0,1-.5-1.392A19.172,19.172,0,0,1-24.6-4.9v-24.96a16.564,16.564,0,0,1,.192-3.264,2.5,2.5,0,0,1,.624-1.152,1.935,1.935,0,0,1,.768-.528,2.956,2.956,0,0,1,1.1-.192,2.956,2.956,0,0,1,1.1.192,1.935,1.935,0,0,1,.768.528,2.869,2.869,0,0,1,.624,1.248,16.26,16.26,0,0,1,.192,3.168V-4.9a21.82,21.82,0,0,1-.144,3.072,3.289,3.289,0,0,1-.48,1.344,1.937,1.937,0,0,1-.816.744,2.76,2.76,0,0,1-1.248.264A3.066,3.066,0,0,1-23.16.312,1.7,1.7,0,0,1-23.928-.384Zm54.144-19.68a16.328,16.328,0,0,0-5.136.6,3.836,3.836,0,0,0-2.352,2.184v-9.7q0-4.512,1.7-6.12t6.36-1.608A24.362,24.362,0,0,1,34.8-34.3a13.447,13.447,0,0,1,3.144.792q.144.048.1.168t-.192.072a5.1,5.1,0,0,0-.96-.168,11.388,11.388,0,0,0-1.2-.072,7.207,7.207,0,0,0-5.016,1.752,6.048,6.048,0,0,0-1.944,4.728,5.794,5.794,0,0,0,2.064,4.608,8.1,8.1,0,0,0,5.472,1.776,9.01,9.01,0,0,0,5.88-1.752,5.745,5.745,0,0,0,2.136-4.68q0-4.032-4.32-6.168t-12-2.136q-11.28,0-17.784,4.92a15.919,15.919,0,0,0-6.5,13.416q0,8.5,5.688,13.224T25.128.912q9.984,0,15.288-2.832t5.3-8.3a8.147,8.147,0,0,0-4.2-7.176Q37.32-20.064,30.216-20.064Zm-7.44,6.144v-1.272a4.312,4.312,0,0,1,.048-.7,3.815,3.815,0,0,1,.744-2.016,1.868,1.868,0,0,1,1.512-.864,1.888,1.888,0,0,1,1.8,1.032,8.844,8.844,0,0,1,.552,3.768v9.984a7.643,7.643,0,0,1-.552,3.6A1.926,1.926,0,0,1,25.128.48a1.974,1.974,0,0,1-1.8-.864,7.643,7.643,0,0,1-.552-3.6Z" transform="translate(45.98 35.876)" fill="none" stroke="#fff" stroke-width="1"/>
</svg>
