<svg xmlns="http://www.w3.org/2000/svg" width="83.752" height="37.816" viewBox="0 0 83.752 37.816">
  <path id="_7" data-name="7" d="M-17.256-35.376q-10.272,0-16.92,5.016a15.732,15.732,0,0,0-6.648,13.176A15.642,15.642,0,0,0-34.176-4.1Q-27.528.912-17.256.912-7.032.912-.36-4.08a15.606,15.606,0,0,0,6.672-13.1,15.732,15.732,0,0,0-6.624-13.2Q-6.936-35.376-17.256-35.376ZM-19.272-.384a4.027,4.027,0,0,1-.5-1.392,19.172,19.172,0,0,1-.168-3.12v-24.96a16.564,16.564,0,0,1,.192-3.264,2.5,2.5,0,0,1,.624-1.152,1.935,1.935,0,0,1,.768-.528,2.956,2.956,0,0,1,1.1-.192,2.956,2.956,0,0,1,1.1.192,1.935,1.935,0,0,1,.768.528,2.869,2.869,0,0,1,.624,1.248,16.26,16.26,0,0,1,.192,3.168V-4.9a21.82,21.82,0,0,1-.144,3.072,3.289,3.289,0,0,1-.48,1.344,1.937,1.937,0,0,1-.816.744,2.76,2.76,0,0,1-1.248.264A3.066,3.066,0,0,1-18.5.312,1.7,1.7,0,0,1-19.272-.384Zm51.84-11.568a9.959,9.959,0,0,1-1.44-2.232,4.675,4.675,0,0,1-.336-1.752,3.732,3.732,0,0,1,.768-2.28,13.7,13.7,0,0,1,3.456-2.712q4.272-2.736,5.592-4.968a11.472,11.472,0,0,0,1.32-5.88,10.815,10.815,0,0,0-.264-2.376,4.673,4.673,0,0,0-.7-1.752h-.192a.856.856,0,0,1,.072.216,1.645,1.645,0,0,1,.024.312,2.488,2.488,0,0,1-.936,2.136,4.784,4.784,0,0,1-2.856.7,16.354,16.354,0,0,1-2.544-.24q-1.488-.24-4.992-1.008Q25.128-34.8,22.9-35.136a27.2,27.2,0,0,0-4.008-.336,17.363,17.363,0,0,0-4.656.552,8.434,8.434,0,0,0-3.216,1.608,6.089,6.089,0,0,0-1.464,1.848,7.432,7.432,0,0,0-.792,2.376H8.616l-.144-5.376H8.184L7.992-18.1H8.28a5.487,5.487,0,0,1,.336-1.632,4.6,4.6,0,0,1,.768-1.344,5.719,5.719,0,0,1,2.592-1.488,14.7,14.7,0,0,1,4.08-.48q1.2,0,2.592.1t4.128.48q2.832.336,4.3.456t2.808.12a20.955,20.955,0,0,0,4.8-.48,8.546,8.546,0,0,0,3.264-1.44.158.158,0,0,1,.168,0q.072.048-.024.144a4.918,4.918,0,0,1-.528.456q-.288.216-.768.552a40.3,40.3,0,0,1-5.808,3.072,73.079,73.079,0,0,1-7.92,2.736,17.345,17.345,0,0,0-7.584,3.96,8.239,8.239,0,0,0-2.448,6.024,6.545,6.545,0,0,0,3.024,5.712A14.361,14.361,0,0,0,24.264.912,12.544,12.544,0,0,0,31.8-1.176a6.655,6.655,0,0,0,2.88-5.688,6.731,6.731,0,0,0-.408-2.352A10.785,10.785,0,0,0,32.568-11.952Z" transform="translate(41.324 36.404)" fill="none" stroke="#fff" stroke-width="1"/>
</svg>
