<svg xmlns="http://www.w3.org/2000/svg" width="93.592" height="37.288" viewBox="0 0 93.592 37.288">
  <path id="_8" data-name="8" d="M-22.656-35.376q-10.272,0-16.92,5.016a15.732,15.732,0,0,0-6.648,13.176A15.642,15.642,0,0,0-39.576-4.1Q-32.928.912-22.656.912q10.224,0,16.9-4.992a15.606,15.606,0,0,0,6.672-13.1,15.732,15.732,0,0,0-6.624-13.2Q-12.336-35.376-22.656-35.376ZM-24.672-.384a4.027,4.027,0,0,1-.5-1.392,19.172,19.172,0,0,1-.168-3.12v-24.96a16.564,16.564,0,0,1,.192-3.264,2.5,2.5,0,0,1,.624-1.152,1.935,1.935,0,0,1,.768-.528,2.956,2.956,0,0,1,1.1-.192,2.956,2.956,0,0,1,1.1.192,1.935,1.935,0,0,1,.768.528,2.869,2.869,0,0,1,.624,1.248,16.26,16.26,0,0,1,.192,3.168V-4.9a21.82,21.82,0,0,1-.144,3.072,3.289,3.289,0,0,1-.48,1.344,1.937,1.937,0,0,1-.816.744,2.76,2.76,0,0,1-1.248.264A3.066,3.066,0,0,1-23.9.312,1.7,1.7,0,0,1-24.672-.384Zm71.04-8.3q0-4.176-4.464-6.552T29.04-17.76V-17.9q8.3,0,12.24-1.944a6.322,6.322,0,0,0,3.936-5.976q0-4.752-5.208-7.152t-15.432-2.4q-10.272,0-15.456,2.4T3.936-25.824a6.34,6.34,0,0,0,3.888,5.952Q11.712-17.9,20.112-17.9v.144q-7.872,0-12.6,2.376t-4.728,6.7q0,4.848,5.16,7.224T24.576.912q11.52,0,16.656-2.4T46.368-8.688ZM22.08-30.864a6.4,6.4,0,0,1,.576-3.264,2.135,2.135,0,0,1,1.92-.864,2.135,2.135,0,0,1,1.92.864,6.4,6.4,0,0,1,.576,3.264v8.3a7.665,7.665,0,0,1-.576,3.672,2.114,2.114,0,0,1-1.92.888,2.135,2.135,0,0,1-1.92-.864,7.651,7.651,0,0,1-.576-3.7Zm0,17.424a6.254,6.254,0,0,1,.576-3.24,2.159,2.159,0,0,1,1.92-.84,2.159,2.159,0,0,1,1.92.84,6.254,6.254,0,0,1,.576,3.24v9.408A7.52,7.52,0,0,1,26.5-.408a2.114,2.114,0,0,1-1.92.888,2.135,2.135,0,0,1-1.92-.864,7.506,7.506,0,0,1-.576-3.648Z" transform="translate(46.724 35.876)" fill="none" stroke="#fff" stroke-width="1"/>
</svg>
