<svg xmlns="http://www.w3.org/2000/svg" width="91.816" height="37.288" viewBox="0 0 91.816 37.288">
  <path id="_9" data-name="9" d="M-21.84-35.376q-10.272,0-16.92,5.016a15.732,15.732,0,0,0-6.648,13.176A15.642,15.642,0,0,0-38.76-4.1Q-32.112.912-21.84.912q10.224,0,16.9-4.992a15.606,15.606,0,0,0,6.672-13.1A15.732,15.732,0,0,0-4.9-30.384Q-11.52-35.376-21.84-35.376ZM-23.856-.384a4.027,4.027,0,0,1-.5-1.392,19.172,19.172,0,0,1-.168-3.12v-24.96a16.564,16.564,0,0,1,.192-3.264,2.5,2.5,0,0,1,.624-1.152,1.935,1.935,0,0,1,.768-.528,2.956,2.956,0,0,1,1.1-.192,2.956,2.956,0,0,1,1.1.192,1.935,1.935,0,0,1,.768.528,2.869,2.869,0,0,1,.624,1.248,16.26,16.26,0,0,1,.192,3.168V-4.9A21.82,21.82,0,0,1-19.3-1.824a3.289,3.289,0,0,1-.48,1.344,1.937,1.937,0,0,1-.816.744A2.76,2.76,0,0,1-21.84.528,3.066,3.066,0,0,1-23.088.312,1.7,1.7,0,0,1-23.856-.384ZM24.192-35.376q-10.032,0-15.36,2.856T3.5-24.144a7.893,7.893,0,0,0,4.272,7.1Q12.048-14.5,19.248-14.5a15.311,15.311,0,0,0,5.064-.624A3.456,3.456,0,0,0,26.5-17.232v9.84q0,4.224-1.848,5.9T18.384.192a24.7,24.7,0,0,1-3.912-.336,12.187,12.187,0,0,1-3.192-.864q-.144-.048-.1-.168t.144-.072a3.91,3.91,0,0,0,.888.168q.408.024,1.128.024a7.218,7.218,0,0,0,5.088-1.656A5.706,5.706,0,0,0,20.64-7.344a5.822,5.822,0,0,0-2.208-4.7,8.451,8.451,0,0,0-5.568-1.824,8.96,8.96,0,0,0-5.9,1.728A6.03,6.03,0,0,0,4.9-7.248a5.776,5.776,0,0,0,2.376,4.68A16.139,16.139,0,0,0,14.16.24Q15.7.528,17.712.72t3.744.192q11.04,0,17.5-4.944t6.456-13.584q0-8.256-5.544-13.008T24.192-35.376Zm-2.4,4.608a6.771,6.771,0,0,1,.576-3.216,1.949,1.949,0,0,1,1.824-1.008,1.767,1.767,0,0,1,1.68,1.008A7.454,7.454,0,0,1,26.4-30.72v10.08a17.155,17.155,0,0,1-.12,2.232,5.314,5.314,0,0,1-.408,1.512,2.174,2.174,0,0,1-.72.864,1.775,1.775,0,0,1-1.008.288,1.8,1.8,0,0,1-1.8-1.008,9.683,9.683,0,0,1-.552-3.984Z" transform="translate(45.908 35.876)" fill="none" stroke="#fff" stroke-width="1"/>
</svg>
