<svg xmlns="http://www.w3.org/2000/svg" width="200" height="167" viewBox="0 0 200 167">
  <g id="resultado-baixo" transform="translate(-642 -135)">
    <rect id="Retângulo_20" data-name="Retângulo 20" width="4" height="70" rx="2" transform="translate(642 183)" fill="#fff"/>
    <g id="resultado-baixo-2" data-name="resultado-baixo" transform="translate(-15)">
      <g id="Elipse_3" data-name="Elipse 3" transform="translate(690 135)" fill="#f21247" stroke="#fff" stroke-width="10">
        <circle cx="83.5" cy="83.5" r="83.5" stroke="none"/>
        <circle cx="83.5" cy="83.5" r="78.5" fill="none"/>
      </g>
      <g id="Grupo_27" data-name="Grupo 27" transform="translate(730.867 169.027)">
        <path id="Caminho_31" data-name="Caminho 31" d="M14.066,52.133l1.808-23.2,6.177-9.441,8.9-2.748,5.5-4.533S46.664,6.9,47.251,6.9s12.377.775,12.377.775L76.373,14.2l10,11.414,3.288,10.028V54.811L90.7,58.662,91.78,63.2l-2.443,4.063L87.6,76.324,90,95.136l3.476,5.449-12.776,2.325-15.1-2.349-7.7-3.687L43.94,96.4l-6.881,4.133-11.6,2.349-11.367-2.325-2.443-.023,2.419-9.065,1.808-12.588V67.235l-3.8-4.274-.47-3.922,3.57-3.429Z" transform="translate(-8.774 -5.3)" fill="#161616"/>
        <path id="Caminho_32" data-name="Caminho 32" d="M17.712,207.8l-3.875,2.4L11.7,215.128l1.433,3.311,1.01,2.513,3.57,2.607h2.513V207.8Z" transform="translate(-8.851 -159.018)" fill="#ed9b64"/>
        <path id="Caminho_33" data-name="Caminho 33" d="M319.313,207.8l3.875,2.4,2.137,4.932-1.433,3.311-1.01,2.513-3.57,2.607H316.8V207.8Z" transform="translate(-242.296 -159.018)" fill="#ed9b64"/>
        <path id="Caminho_34" data-name="Caminho 34" d="M48,159.33l.517,20.057,5.777,11.085,4.2,6.459s11.3,6.412,11.555,6.412,12.706.658,13.1.658,9.3-1.738,9.3-1.738l8.525-6.529,7.985-10.756,1.973-8.384.517-13.857s-7.609-1.174-7.985-.8c-.4.376-15.078-2.63-15.078-2.63L78.038,155.76l-9.371-5.472L64.628,147l-4.016,5.777L57.3,156.065Z" transform="translate(-36.625 -112.497)" fill="#ffc38d"/>
        <g id="Grupo_26" data-name="Grupo 26" transform="translate(0.133 -0.027)">
          <path id="Caminho_35" data-name="Caminho 35" d="M249.337,228.006a1.826,1.826,0,0,0,1.221.446,1.987,1.987,0,0,0,1.339-.54,1.885,1.885,0,0,0,0-2.654,6.832,6.832,0,0,0-9.676,0,1.888,1.888,0,0,0,.634,3.077c0,.094-.023.211-.023.305a3.288,3.288,0,0,0,6.576,0A2.915,2.915,0,0,0,249.337,228.006Z" transform="translate(-184.947 -170.812)"/>
          <path id="Caminho_36" data-name="Caminho 36" d="M142.321,306.162a1.877,1.877,0,0,0,2.654,2.654,9.2,9.2,0,0,1,13.011,0,1.843,1.843,0,0,0,1.339.54,1.943,1.943,0,0,0,1.339-.54,1.885,1.885,0,0,0,0-2.654A13,13,0,0,0,142.321,306.162Z" transform="translate(-108.509 -231.354)"/>
          <path id="Caminho_37" data-name="Caminho 37" d="M85.613,93.429c-4.392-4.885-4.58-17.285-4.063-30.132A9.855,9.855,0,0,0,82.231,49.6c.634-13.1.986-21.865-3.171-29.968A33.734,33.734,0,0,0,65.415,5.921,44.454,44.454,0,0,0,41.53,0,25.748,25.748,0,0,0,22.554,9.468,18.143,18.143,0,0,0,7.9,18.3c-.258.446-.517.892-.728,1.339C3.014,27.739,3.342,36.5,4,49.6a9.826,9.826,0,0,0,.681,13.669C5.2,76.12,5.01,88.544.618,93.429A1.805,1.805,0,0,0,.2,95.12a1.861,1.861,0,0,0,1.151,1.315,39.484,39.484,0,0,0,14.091,2.536A44.717,44.717,0,0,0,27.063,97.4a45.629,45.629,0,0,0,10.592-4.3,32.466,32.466,0,0,0,5.472.446A35.109,35.109,0,0,0,48.6,93.1a46.283,46.283,0,0,0,22.147,5.871,39.985,39.985,0,0,0,14.138-2.536,1.813,1.813,0,0,0,1.151-1.315A1.79,1.79,0,0,0,85.613,93.429ZM76.688,59.985V50.309a6.1,6.1,0,0,1-.047,11.625C76.665,61.277,76.688,60.619,76.688,59.985ZM10.506,21.351c.211-.4.423-.8.634-1.174a14.483,14.483,0,0,1,12.353-7h.023a1.958,1.958,0,0,0,1.456-.728,21.994,21.994,0,0,1,16.675-8.69A40.794,40.794,0,0,1,63.536,9.186,30.13,30.13,0,0,1,75.7,21.351c3.335,6.482,3.429,13.528,2.889,25.623a8.867,8.867,0,0,0-1.9-.564v-1.9a1.879,1.879,0,1,0-3.758,0v4.274c-25.881.282-39.9-12.189-43.636-16.088a1.863,1.863,0,0,0-1.714-.54,1.841,1.841,0,0,0-1.386,1.127C23.47,39.928,18.7,43.4,11.187,44.226a1.865,1.865,0,0,0-1.667,1.879v.352a10.444,10.444,0,0,0-1.9.564C7.077,34.879,7.171,27.833,10.506,21.351ZM9.59,61.934a6.1,6.1,0,0,1-.047-11.625v9.676A18.15,18.15,0,0,0,9.59,61.934ZM4.986,93.71c3.358-5.73,3.922-15.219,3.5-28.206a10.659,10.659,0,0,0,1.55.352A33.692,33.692,0,0,0,32.042,91.667C26.617,94.016,16.307,97.116,4.986,93.71Zm38.117-3.9A29.869,29.869,0,0,1,13.277,59.985V47.726c7.046-1.151,12.072-4.627,15.242-10.545a55.913,55.913,0,0,0,13.246,8.831A69.568,69.568,0,0,0,72.93,52.564v7.445A29.864,29.864,0,0,1,43.1,89.812ZM60.3,93.828a43.439,43.439,0,0,1-6.13-2.137A33.689,33.689,0,0,0,76.171,65.857a8.718,8.718,0,0,0,1.55-.352c-.423,12.964.164,22.476,3.5,28.206A37.686,37.686,0,0,1,60.3,93.828Z" transform="translate(-0.133 0.027)"/>
          <path id="Caminho_38" data-name="Caminho 38" d="M79.321,225.215a1.88,1.88,0,0,0,2.536,2.771,2.707,2.707,0,0,0-.07.611,3.288,3.288,0,0,0,6.576,0,1.34,1.34,0,0,0-.023-.305,1.888,1.888,0,0,0,.634-3.077A6.846,6.846,0,0,0,79.321,225.215Z" transform="translate(-60.305 -170.793)"/>
        </g>
      </g>
    </g>
  </g>
</svg>
